<?xml version="1.0" standalone="no"?>
<!DOCTYPE svg PUBLIC "-//W3C//DTD SVG 20010904//EN"
 "http://www.w3.org/TR/2001/REC-SVG-20010904/DTD/svg10.dtd">
<svg version="1.0" xmlns="http://www.w3.org/2000/svg"
 width="48.000000pt" height="48.000000pt" viewBox="0 0 48.000000 48.000000"
 preserveAspectRatio="xMidYMid meet">

<g transform="translate(0.000000,48.000000) scale(0.100000,-0.100000)"
fill="#000000" stroke="none">
<path d="M191 414 c-17 -21 -21 -41 -21 -96 0 -60 3 -72 25 -93 38 -39 61 -33
68 16 3 23 15 51 26 63 43 46 11 136 -49 136 -19 0 -36 -9 -49 -26z"/>
<path d="M120 265 c0 -35 6 -51 31 -80 17 -19 40 -35 50 -35 13 0 19 -7 19
-24 0 -19 -6 -25 -27 -28 -14 -2 -28 -9 -31 -15 -3 -10 17 -13 78 -13 61 0 81
3 78 13 -3 6 -17 13 -31 15 -34 4 -39 47 -6 55 13 3 18 10 14 17 -4 7 -18 9
-32 5 -33 -8 -91 12 -103 35 -6 10 -10 37 -10 59 0 30 -4 41 -15 41 -11 0 -15
-12 -15 -45z"/>
<path d="M325 298 c-28 -16 -35 -28 -35 -64 0 -77 111 -89 135 -15 9 28 -12
70 -40 81 -32 12 -35 12 -60 -2z m20 -38 c5 -8 11 -7 21 1 18 15 32 3 16 -13
-9 -9 -9 -15 0 -25 14 -18 3 -29 -15 -15 -10 9 -16 9 -25 0 -16 -16 -28 -2
-13 16 8 10 9 16 1 21 -13 8 -13 25 -1 25 6 0 13 -5 16 -10z"/>
</g>
</svg>
